<svg width="403" height="403" viewBox="0 0 403 403" fill="none" xmlns="http://www.w3.org/2000/svg">
<circle cx="201.5" cy="201.5" r="201.5" fill="white"/>
<mask id="mask0_1_3766" style="mask-type:luminance" maskUnits="userSpaceOnUse" x="90" y="115" width="224" height="172">
<path d="M90.8867 115H313.377V287H90.8867V115Z" fill="white"/>
</mask>
<g mask="url(#mask0_1_3766)">
<path d="M95.8813 154.936C95.8813 162.533 98.2395 171.348 105.586 171.348C113.165 171.348 117.441 165.955 125.019 165.955C135.437 165.955 143.021 174.28 143.021 184.809C143.021 195.338 134.255 202.935 124.058 202.935C105.824 202.953 90.8984 179.679 90.8984 163.996C90.8984 135.586 113.878 115 139.927 115H223.321V116.708C214.792 116.708 202.706 121.372 202.706 129.948C202.706 131.167 203.65 134.123 203.65 134.123L244.15 231.87L270.478 164.486C270.478 164.486 274.517 153.467 274.517 147.829C274.517 132.146 265.044 116.953 253.427 116.953V115H313.366V116.953C295.369 116.953 283.277 138.035 275.936 157.134L226.902 287L161.018 133.371C156.052 121.372 150.6 117.443 139.927 117.443C118.86 117.443 95.8813 133.371 95.8813 154.936Z" fill="#FF0083"/>
</g>
<mask id="mask1_1_3766" style="mask-type:luminance" maskUnits="userSpaceOnUse" x="56" y="206" width="291" height="28">
<path d="M56 206.447H347V233.597H56V206.447Z" fill="white"/>
</mask>
<g mask="url(#mask1_1_3766)">
<path d="M56 206.447H347V233.597H56V206.447Z" fill="white"/>
</g>
<path d="M64.8337 211.087V211.278C64.77 211.278 64.7063 211.302 64.6483 211.349C64.602 211.385 64.5788 211.439 64.5788 211.517C64.5788 211.535 64.5788 211.558 64.5788 211.588C64.5904 211.606 64.6136 211.672 64.6483 211.779C64.6947 211.875 64.7526 212.006 64.8337 212.162L67.8234 218.97L70.7436 212.114C70.79 212.018 70.8363 211.917 70.8827 211.803C70.9406 211.678 70.9754 211.582 70.9754 211.517C70.9754 211.457 70.9522 211.397 70.9059 211.349C70.8595 211.302 70.7958 211.278 70.7205 211.278V211.087H73.3857V211.278C73.2466 211.296 73.1366 211.343 73.0612 211.421C72.9975 211.505 72.9106 211.648 72.8063 211.851L68.9591 220.929C68.9243 221.024 68.8953 221.108 68.8664 221.168C68.849 221.216 68.8432 221.263 68.8432 221.311C68.8432 221.454 68.9417 221.526 69.1445 221.526V221.741H66.3402V221.526C66.4445 221.514 66.5082 221.496 66.5256 221.478C66.5546 221.466 66.5719 221.425 66.5719 221.359C66.5719 221.281 66.5256 221.138 66.4329 220.929L62.4929 211.851C62.4466 211.744 62.406 211.654 62.3771 211.588C62.3423 211.529 62.3075 211.481 62.2612 211.445C62.2148 211.397 62.1569 211.367 62.0989 211.349C62.0352 211.338 61.9599 211.314 61.8672 211.278V211.087H64.8337Z" fill="#231F20"/>
<path d="M95.8962 213.189H95.6876C95.6876 212.938 95.5312 212.807 95.2241 212.807H88.3871V215.41H92.8369C92.9876 215.41 93.1035 215.387 93.1846 215.339C93.2773 215.279 93.3236 215.172 93.3236 215.028H93.5091V217.489H93.3236C93.3236 217.268 93.1672 217.154 92.8601 217.154H88.3871V220.021H95.34C95.6644 220.021 95.8267 219.902 95.8267 219.663H96.0121V222.052H95.8267C95.8267 221.842 95.6644 221.741 95.34 221.741H86V221.526C86.1391 221.526 86.2318 221.502 86.2781 221.454C86.3361 221.395 86.3708 221.281 86.3708 221.12V211.732C86.3708 211.576 86.3476 211.463 86.3013 211.397C86.2549 211.319 86.1506 211.278 86 211.278V211.087H95.2009C95.5254 211.087 95.6876 210.979 95.6876 210.752H95.8962V213.189Z" fill="#231F20"/>
<path d="M112.278 211.087V211.278C112.104 211.278 112 211.302 111.954 211.349C111.907 211.385 111.884 211.421 111.884 211.469C111.884 211.517 111.936 211.588 112.046 211.684L118.211 218.444V211.684C118.211 211.541 118.188 211.439 118.142 211.373C118.095 211.314 117.991 211.278 117.841 211.278V211.087H120.39V211.278C120.233 211.278 120.123 211.314 120.065 211.373C120.019 211.439 119.996 211.558 119.996 211.732V221.072C119.996 221.251 120.019 221.371 120.065 221.431C120.123 221.496 120.233 221.526 120.39 221.526V221.741H117.748V221.526C117.823 221.526 117.887 221.526 117.933 221.526C117.991 221.514 118.026 221.478 118.026 221.431C118.026 221.371 118.003 221.311 117.956 221.263C117.91 221.204 117.846 221.132 117.771 221.048L111.374 213.953V221.12C111.374 221.263 111.398 221.371 111.444 221.431C111.49 221.496 111.595 221.526 111.768 221.526V221.741H109.242V221.526C109.393 221.526 109.486 221.496 109.52 221.431C109.567 221.371 109.59 221.275 109.59 221.144V211.684C109.59 211.541 109.567 211.439 109.52 211.373C109.486 211.314 109.393 211.278 109.242 211.278V211.087H112.278Z" fill="#231F20"/>
<path d="M133.309 210.728H133.494C133.494 210.967 133.656 211.087 133.981 211.087H142.857C143.182 211.087 143.344 210.967 143.344 210.728H143.529V213.165H143.344C143.344 212.926 143.182 212.807 142.857 212.807H139.427V221.12C139.427 221.263 139.45 221.371 139.497 221.431C139.555 221.496 139.682 221.526 139.867 221.526V221.741H136.994V221.526C137.162 221.526 137.272 221.496 137.318 221.431C137.376 221.371 137.411 221.263 137.411 221.12V212.807H133.981C133.656 212.807 133.494 212.926 133.494 213.165H133.309V210.728Z" fill="#231F20"/>
<path d="M159.238 211.087V211.278C159.064 211.278 158.948 211.314 158.89 211.373C158.844 211.439 158.82 211.553 158.82 211.708V217.799C158.82 218.247 158.867 218.624 158.96 218.922C159.064 219.227 159.243 219.466 159.493 219.639C159.736 219.818 160.06 219.949 160.466 220.045C160.883 220.129 161.399 220.164 162.019 220.164C162.679 220.164 163.224 220.117 163.641 220.021C164.058 219.926 164.383 219.782 164.614 219.591C164.846 219.4 165.008 219.161 165.101 218.874C165.194 218.576 165.24 218.218 165.24 217.799V211.708C165.24 211.553 165.205 211.439 165.148 211.373C165.101 211.314 164.991 211.278 164.823 211.278V211.087H167.651V211.278C167.494 211.278 167.384 211.314 167.326 211.373C167.28 211.439 167.257 211.553 167.257 211.708V218.158C167.257 218.767 167.152 219.304 166.955 219.782C166.752 220.248 166.445 220.636 166.028 220.953C165.611 221.275 165.066 221.514 164.406 221.669C163.74 221.813 162.946 221.884 162.019 221.884C161.092 221.884 160.292 221.813 159.632 221.669C158.983 221.514 158.438 221.275 158.009 220.953C157.592 220.636 157.279 220.248 157.082 219.782C156.897 219.304 156.804 218.767 156.804 218.158V211.708C156.804 211.553 156.781 211.439 156.735 211.373C156.688 211.314 156.578 211.278 156.41 211.278V211.087H159.238Z" fill="#231F20"/>
<path d="M187.974 215.482C188.218 215.482 188.449 215.458 188.669 215.411C188.884 215.363 189.069 215.285 189.226 215.172C189.394 215.046 189.527 214.903 189.62 214.742C189.724 214.586 189.782 214.383 189.782 214.144C189.782 213.906 189.724 213.703 189.62 213.523C189.51 213.35 189.371 213.213 189.203 213.117C189.029 213.01 188.837 212.926 188.623 212.878C188.403 212.831 188.189 212.807 187.974 212.807H183.64V215.482H187.974ZM188.067 211.087C188.606 211.087 189.098 211.158 189.55 211.302C190.014 211.433 190.408 211.63 190.732 211.899C191.068 212.156 191.335 212.472 191.52 212.854C191.706 213.237 191.798 213.667 191.798 214.144C191.798 214.993 191.555 215.685 191.08 216.223C190.616 216.766 189.927 217.107 189.017 217.25L191.474 220.857C191.642 221.114 191.763 221.287 191.845 221.383C191.937 221.478 192.076 221.526 192.262 221.526V221.741H189.11V221.526C189.185 221.526 189.231 221.52 189.249 221.502C189.278 221.472 189.295 221.448 189.295 221.431C189.295 221.353 189.278 221.287 189.249 221.239C189.214 221.18 189.139 221.06 189.017 220.881L186.514 217.202H183.594V221.096C183.594 221.257 183.617 221.371 183.663 221.431C183.71 221.496 183.814 221.526 183.988 221.526V221.741H181.184V221.526C181.334 221.526 181.439 221.496 181.485 221.431C181.543 221.371 181.578 221.257 181.578 221.096V211.708C181.578 211.553 181.554 211.439 181.508 211.373C181.462 211.314 181.352 211.278 181.184 211.278V211.087H188.067Z" fill="#231F20"/>
<path d="M215.08 213.189H214.871C214.871 212.938 214.715 212.807 214.408 212.807H207.571V215.41H212.021C212.171 215.41 212.287 215.387 212.368 215.339C212.461 215.279 212.507 215.172 212.507 215.028H212.693V217.489H212.507C212.507 217.268 212.351 217.154 212.044 217.154H207.571V220.021H214.524C214.848 220.021 215.01 219.902 215.01 219.663H215.196V222.052H215.01C215.01 221.842 214.848 221.741 214.524 221.741H205.184V221.526C205.323 221.526 205.415 221.502 205.462 221.454C205.52 221.395 205.554 221.281 205.554 221.12V211.732C205.554 211.576 205.531 211.463 205.485 211.397C205.439 211.319 205.334 211.278 205.184 211.278V211.087H214.384C214.709 211.087 214.871 210.979 214.871 210.752H215.08V213.189Z" fill="#231F20"/>
<path d="M247.322 211.087V211.278C247.258 211.278 247.195 211.302 247.137 211.349C247.09 211.385 247.067 211.439 247.067 211.517C247.067 211.535 247.067 211.558 247.067 211.588C247.079 211.606 247.102 211.672 247.137 211.779C247.183 211.875 247.241 212.006 247.322 212.162L250.312 218.97L253.232 212.114C253.278 212.018 253.325 211.917 253.371 211.803C253.429 211.678 253.464 211.582 253.464 211.517C253.464 211.457 253.44 211.397 253.394 211.349C253.348 211.302 253.284 211.278 253.209 211.278V211.087H255.874V211.278C255.735 211.296 255.625 211.343 255.55 211.421C255.486 211.505 255.399 211.648 255.295 211.851L251.447 220.929C251.413 221.024 251.384 221.108 251.355 221.168C251.337 221.216 251.331 221.263 251.331 221.311C251.331 221.454 251.43 221.526 251.633 221.526V221.741H248.828V221.526C248.933 221.514 248.996 221.496 249.014 221.478C249.043 221.466 249.06 221.425 249.06 221.359C249.06 221.281 249.014 221.138 248.921 220.929L244.981 211.851C244.935 211.744 244.894 211.654 244.865 211.588C244.831 211.529 244.796 211.481 244.749 211.445C244.703 211.397 244.645 211.367 244.587 211.349C244.523 211.338 244.448 211.314 244.355 211.278V211.087H247.322Z" fill="#231F20"/>
<path d="M271.692 211.087V211.278C271.472 211.278 271.327 211.314 271.252 211.373C271.188 211.439 271.159 211.558 271.159 211.732V221.12C271.159 221.299 271.194 221.407 271.275 221.454C271.368 221.502 271.507 221.526 271.692 221.526V221.741H268.633V221.526C268.83 221.526 268.963 221.502 269.027 221.454C269.102 221.407 269.143 221.299 269.143 221.12V211.732C269.143 211.558 269.108 211.439 269.05 211.373C268.986 211.314 268.847 211.278 268.633 211.278V211.087H271.692Z" fill="#231F20"/>
<path d="M290.414 210.943C291.046 210.943 291.666 211.015 292.268 211.158C292.871 211.29 293.427 211.463 293.937 211.684C294.105 211.75 294.273 211.827 294.447 211.923C294.615 212.007 294.737 212.042 294.818 212.042C294.911 212.042 294.98 212.013 295.026 211.947L295.258 212.018L294.169 214.216L293.937 214.073C293.949 213.995 293.96 213.93 293.96 213.882C293.96 213.834 293.879 213.75 293.729 213.619C293.572 213.476 293.34 213.344 293.033 213.213C292.72 213.07 292.338 212.944 291.874 212.831C291.423 212.723 290.901 212.663 290.298 212.663C289.279 212.663 288.497 212.807 287.958 213.093C287.413 213.38 287.147 213.774 287.147 214.264C287.147 214.521 287.222 214.712 287.378 214.837C287.529 214.969 287.761 215.064 288.074 215.124C288.381 215.19 288.746 215.232 289.163 215.243C289.592 215.261 290.096 215.267 290.669 215.267C291.376 215.267 292.025 215.315 292.616 215.411C293.219 215.494 293.729 215.65 294.146 215.888C294.574 216.127 294.911 216.456 295.142 216.868C295.386 217.268 295.513 217.794 295.513 218.445C295.513 218.97 295.386 219.448 295.142 219.878C294.893 220.296 294.54 220.654 294.076 220.953C293.613 221.258 293.039 221.49 292.361 221.646C291.677 221.801 290.907 221.885 290.044 221.885C288.218 221.885 286.758 221.568 285.663 220.929C285.443 220.804 285.321 220.738 285.292 220.738C285.229 220.738 285.182 220.756 285.153 220.786C285.136 220.822 285.113 220.845 285.084 220.857L284.898 220.81L286.08 218.325L286.289 218.445C286.289 218.48 286.277 218.51 286.266 218.54C286.266 218.576 286.266 218.624 286.266 218.683C286.277 218.91 286.388 219.113 286.59 219.305C286.805 219.484 287.083 219.633 287.425 219.758C287.778 219.89 288.172 219.991 288.607 220.069C289.035 220.135 289.476 220.165 289.928 220.165C291.052 220.165 291.909 220.033 292.5 219.758C293.085 219.472 293.381 219.084 293.381 218.588C293.381 218.271 293.277 218.027 293.08 217.847C292.894 217.674 292.628 217.549 292.292 217.465C291.95 217.37 291.538 217.316 291.063 217.298C290.582 217.286 290.055 217.268 289.487 217.25C288.804 217.25 288.195 217.202 287.656 217.107C287.112 217.011 286.66 216.862 286.289 216.653C285.918 216.432 285.628 216.145 285.431 215.793C285.229 215.429 285.13 214.969 285.13 214.407C285.13 213.834 285.258 213.332 285.524 212.902C285.785 212.472 286.15 212.114 286.613 211.827C287.089 211.529 287.656 211.302 288.305 211.158C288.954 211.015 289.655 210.943 290.414 210.943Z" fill="#231F20"/>
<path d="M307.922 210.728H308.107C308.107 210.967 308.27 211.087 308.594 211.087H317.47C317.795 211.087 317.957 210.967 317.957 210.728H318.143V213.165H317.957C317.957 212.926 317.795 212.807 317.47 212.807H314.04V221.12C314.04 221.263 314.064 221.371 314.11 221.431C314.168 221.496 314.295 221.526 314.481 221.526V221.741H311.607V221.526C311.775 221.526 311.885 221.496 311.931 221.431C311.989 221.371 312.024 221.263 312.024 221.12V212.807H308.594C308.27 212.807 308.107 212.926 308.107 213.165H307.922V210.728Z" fill="#231F20"/>
<path d="M334.31 217.25H337.694L336.002 213.428L334.31 217.25ZM337.671 211.087V211.278C337.468 211.314 337.369 211.391 337.369 211.517C337.369 211.582 337.393 211.66 337.439 211.756C337.485 211.851 337.532 211.959 337.578 212.066L341.634 220.977C341.727 221.186 341.796 221.329 341.842 221.407C341.9 221.49 342.01 221.526 342.167 221.526V221.741H339.339V221.526C339.507 221.526 339.594 221.478 339.594 221.383C339.594 221.335 339.577 221.263 339.548 221.168C339.513 221.072 339.461 220.953 339.386 220.809L338.528 218.922H333.661C333.441 219.4 333.267 219.794 333.128 220.093C333.001 220.379 332.902 220.606 332.827 220.762C332.763 220.905 332.711 221.024 332.665 221.12C332.63 221.204 332.618 221.263 332.618 221.311C332.618 221.443 332.688 221.514 332.827 221.526V221.741H330.301V221.526C330.451 221.526 330.562 221.49 330.625 221.407C330.683 221.311 330.753 221.168 330.834 220.977L334.727 211.994C334.756 211.917 334.785 211.839 334.82 211.756C334.849 211.678 334.866 211.606 334.866 211.541C334.866 211.397 334.762 211.314 334.565 211.278V211.087H337.671Z" fill="#231F20"/>
</svg>
