<svg width="218" height="127" viewBox="0 0 218 127" fill="none" xmlns="http://www.w3.org/2000/svg">
<g id="Group 246">
<g id="Clip path group">
<mask id="mask0_1_2503" style="mask-type:luminance" maskUnits="userSpaceOnUse" x="25" y="0" width="164" height="127">
<g id="84a3898914">
<path id="Vector" d="M25.5273 0H188.328V126.163H25.5273V0Z" fill="white"/>
</g>
</mask>
<g mask="url(#mask0_1_2503)">
<g id="Group">
<path id="Vector_2" d="M29.1812 29.293C29.1812 34.8652 30.9067 41.331 36.2825 41.331C41.8279 41.331 44.9567 37.3753 50.5021 37.3753C58.1249 37.3753 63.6746 43.4819 63.6746 51.205C63.6746 58.9281 57.2601 64.5003 49.7984 64.5003C36.4564 64.5135 25.5352 47.442 25.5352 35.9384C25.5352 15.0996 42.3494 -0.000488281 61.4106 -0.000488281H122.431V1.25238C116.19 1.25238 107.347 4.67367 107.347 10.9643C107.347 11.858 108.038 14.0264 108.038 14.0264L137.672 85.7246L156.937 36.2976C156.937 36.2976 159.892 28.2153 159.892 24.08C159.892 12.5764 152.96 1.43199 144.46 1.43199V-0.000488281H188.319V1.43199C175.15 1.43199 166.302 16.8957 160.931 30.9051L125.051 126.162L76.8427 13.4744C73.2094 4.67367 69.22 1.7912 61.4106 1.7912C45.9954 1.7912 29.1812 13.4744 29.1812 29.293Z" fill="#FF0083"/>
</g>
</g>
</g>
<g id="Clip path group_2">
<mask id="mask1_1_2503" style="mask-type:luminance" maskUnits="userSpaceOnUse" x="0" y="67" width="218" height="20">
<g id="43650ea3e6">
<path id="Vector_3" d="M0 67.0762H218V86.9906H0V67.0762Z" fill="white"/>
</g>
</mask>
<g mask="url(#mask1_1_2503)">
<g id="Group_2">
<path id="Vector_4" d="M0 67.0762H218V86.9906H0V67.0762Z" fill="#F2F2F2"/>
</g>
</g>
</g>
<g id="Group_3">
<g id="Group_4">
<path id="Vector_5" d="M6.46364 70.48V70.6202C6.41701 70.6202 6.37037 70.6377 6.32797 70.6727C6.29406 70.699 6.2771 70.7384 6.2771 70.7954C6.2771 70.8085 6.2771 70.8261 6.2771 70.848C6.28558 70.8611 6.30254 70.9093 6.32797 70.9881C6.36189 71.0582 6.40429 71.1546 6.46364 71.2685L8.65127 76.2625L10.788 71.2335C10.8219 71.1634 10.8559 71.0889 10.8898 71.0057C10.9322 70.9137 10.9576 70.8436 10.9576 70.7954C10.9576 70.7516 10.9407 70.7078 10.9067 70.6727C10.8728 70.6377 10.8262 70.6202 10.7711 70.6202V70.48H12.7213V70.6202C12.6195 70.6333 12.539 70.6683 12.4839 70.7253C12.4372 70.7866 12.3736 70.8918 12.2973 71.0407L9.48223 77.6993C9.4568 77.7694 9.4356 77.8307 9.4144 77.8745C9.40168 77.9096 9.39744 77.9446 9.39744 77.9797C9.39744 78.0848 9.46952 78.1374 9.6179 78.1374V78.2951H7.56594V78.1374C7.64225 78.1286 7.68888 78.1155 7.7016 78.1023C7.7228 78.0936 7.73552 78.0629 7.73552 78.0147C7.73552 77.9578 7.7016 77.8526 7.63377 77.6993L4.75085 71.0407C4.71693 70.9619 4.68725 70.8961 4.66605 70.848C4.64062 70.8041 4.61518 70.7691 4.58126 70.7428C4.54734 70.7078 4.50495 70.6859 4.46255 70.6727C4.41592 70.664 4.3608 70.6464 4.29297 70.6202V70.48H6.46364Z" fill="#231F20"/>
</g>
</g>
<g id="Group_5">
<g id="Group_6">
<g id="Group_7">
<path id="Vector_6" d="M29.1904 72.0222H29.0378C29.0378 71.8382 28.9234 71.7418 28.6987 71.7418H23.6959V73.6518H26.9519C27.0622 73.6518 27.147 73.6343 27.2063 73.5992C27.2742 73.5554 27.3081 73.4766 27.3081 73.3714H27.4437V75.1762H27.3081C27.3081 75.0142 27.1936 74.9309 26.9689 74.9309H23.6959V77.0336H28.7834C29.0209 77.0336 29.1396 76.946 29.1396 76.7708H29.2752V78.5231H29.1396C29.1396 78.3697 29.0209 78.2953 28.7834 78.2953H21.9492V78.1376C22.051 78.1376 22.1188 78.12 22.1527 78.085C22.1951 78.0412 22.2206 77.958 22.2206 77.8397V70.9533C22.2206 70.8394 22.2036 70.7562 22.1697 70.708C22.1358 70.651 22.0594 70.6204 21.9492 70.6204V70.4802H28.6817C28.9191 70.4802 29.0378 70.4013 29.0378 70.2349H29.1904V72.0222Z" fill="#231F20"/>
</g>
</g>
</g>
<g id="Group_8">
<g id="Group_9">
<g id="Group_10">
<path id="Vector_7" d="M41.1825 70.48V70.6202C41.0553 70.6202 40.979 70.6377 40.9451 70.6727C40.9112 70.699 40.8942 70.7253 40.8942 70.7603C40.8942 70.7954 40.9323 70.848 41.0129 70.918L45.5238 75.877V70.918C45.5238 70.8129 45.5069 70.7384 45.473 70.6903C45.439 70.6464 45.3627 70.6202 45.2525 70.6202V70.48H47.1179V70.6202C47.0034 70.6202 46.9229 70.6464 46.8805 70.6903C46.8466 70.7384 46.8296 70.8261 46.8296 70.9531V77.8044C46.8296 77.9359 46.8466 78.0235 46.8805 78.0673C46.9229 78.1155 47.0034 78.1374 47.1179 78.1374V78.2951H45.1847V78.1374C45.2398 78.1374 45.2864 78.1374 45.3203 78.1374C45.3627 78.1286 45.3882 78.1023 45.3882 78.0673C45.3882 78.0235 45.3712 77.9797 45.3373 77.9446C45.3034 77.9008 45.2567 77.8482 45.2016 77.7869L40.5211 72.5827V77.8395C40.5211 77.9446 40.5381 78.0235 40.572 78.0673C40.6059 78.1155 40.6822 78.1374 40.8094 78.1374V78.2951H38.9609V78.1374C39.0712 78.1374 39.139 78.1155 39.1644 78.0673C39.1984 78.0235 39.2153 77.9534 39.2153 77.857V70.918C39.2153 70.8129 39.1984 70.7384 39.1644 70.6903C39.139 70.6464 39.0712 70.6202 38.9609 70.6202V70.48H41.1825Z" fill="#231F20"/>
</g>
</g>
</g>
<g id="Group_11">
<g id="Group_12">
<g id="Group_13">
<path id="Vector_8" d="M56.5664 70.2168H56.7021C56.7021 70.392 56.8208 70.4796 57.0582 70.4796H63.5533C63.7907 70.4796 63.9094 70.392 63.9094 70.2168H64.0451V72.0041H63.9094C63.9094 71.8289 63.7907 71.7413 63.5533 71.7413H61.0434V77.8391C61.0434 77.9443 61.0604 78.0231 61.0943 78.0669C61.1367 78.1151 61.23 78.137 61.3656 78.137V78.2947H59.2628V78.137C59.3857 78.137 59.4663 78.1151 59.5002 78.0669C59.5426 78.0231 59.568 77.9443 59.568 77.8391V71.7413H57.0582C56.8208 71.7413 56.7021 71.8289 56.7021 72.0041H56.5664V70.2168Z" fill="#231F20"/>
</g>
</g>
</g>
<g id="Group_14">
<g id="Group_15">
<g id="Group_16">
<path id="Vector_9" d="M75.5377 70.48V70.6202C75.4105 70.6202 75.3257 70.6464 75.2833 70.6903C75.2494 70.7384 75.2324 70.8217 75.2324 70.9356V75.4038C75.2324 75.7324 75.2663 76.0084 75.3342 76.2274C75.4105 76.4508 75.5419 76.626 75.7242 76.7531C75.9023 76.8845 76.1397 76.9809 76.4365 77.051C76.7417 77.1123 77.119 77.1386 77.5727 77.1386C78.056 77.1386 78.4545 77.1035 78.7598 77.0334C79.065 76.9634 79.3024 76.8582 79.472 76.718C79.6416 76.5779 79.7603 76.4026 79.8281 76.1924C79.896 75.9733 79.9299 75.7105 79.9299 75.4038V70.9356C79.9299 70.8217 79.9045 70.7384 79.8621 70.6903C79.8281 70.6464 79.7476 70.6202 79.6246 70.6202V70.48H81.6936V70.6202C81.5791 70.6202 81.4985 70.6464 81.4561 70.6903C81.4222 70.7384 81.4053 70.8217 81.4053 70.9356V75.6667C81.4053 76.1135 81.329 76.5078 81.1848 76.8582C81.0364 77.1999 80.8117 77.4847 80.5065 77.7168C80.2012 77.9534 79.8027 78.1286 79.3194 78.2425C78.8318 78.3476 78.251 78.4002 77.5727 78.4002C76.8943 78.4002 76.3093 78.3476 75.826 78.2425C75.3511 78.1286 74.9526 77.9534 74.6389 77.7168C74.3336 77.4847 74.1047 77.1999 73.9605 76.8582C73.8249 76.5078 73.757 76.1135 73.757 75.6667V70.9356C73.757 70.8217 73.7401 70.7384 73.7062 70.6903C73.6723 70.6464 73.5917 70.6202 73.4688 70.6202V70.48H75.5377Z" fill="#231F20"/>
</g>
</g>
</g>
<g id="Group_17">
<g id="Group_18">
<g id="Group_19">
<path id="Vector_10" d="M96.5665 73.7041C96.7445 73.7041 96.9141 73.6866 97.0752 73.6516C97.2321 73.6165 97.3677 73.5596 97.4822 73.4764C97.6052 73.3844 97.7027 73.2792 97.7705 73.1609C97.8468 73.047 97.8892 72.8981 97.8892 72.7229C97.8892 72.5477 97.8468 72.3987 97.7705 72.2673C97.69 72.1403 97.5882 72.0395 97.4653 71.9694C97.3381 71.8906 97.1982 71.8292 97.0413 71.7942C96.8802 71.7591 96.7233 71.7416 96.5665 71.7416H93.3952V73.7041H96.5665ZM96.6343 70.48C97.0286 70.48 97.3889 70.5325 97.7196 70.6377C98.0588 70.7341 98.3471 70.8786 98.5845 71.0758C98.8304 71.2641 99.0254 71.4963 99.1611 71.7767C99.2968 72.057 99.3646 72.3724 99.3646 72.7229C99.3646 73.3449 99.1865 73.8531 98.8389 74.2473C98.4997 74.646 97.9952 74.8957 97.3296 75.0008L99.1272 77.6467C99.2501 77.8351 99.3392 77.9621 99.3985 78.0322C99.4663 78.1023 99.5681 78.1374 99.7038 78.1374V78.2951H97.3974V78.1374C97.4525 78.1374 97.4865 78.133 97.4992 78.1198C97.5204 78.0979 97.5331 78.0804 97.5331 78.0673C97.5331 78.0103 97.5204 77.9621 97.4992 77.9271C97.4737 77.8833 97.4186 77.7957 97.3296 77.6643L95.4981 74.9658H93.3613V77.822C93.3613 77.9402 93.3783 78.0235 93.4122 78.0673C93.4461 78.1155 93.5224 78.1374 93.6496 78.1374V78.2951H91.5977V78.1374C91.7079 78.1374 91.7842 78.1155 91.8181 78.0673C91.8605 78.0235 91.8859 77.9402 91.8859 77.822V70.9356C91.8859 70.8217 91.869 70.7384 91.8351 70.6903C91.8012 70.6464 91.7206 70.6202 91.5977 70.6202V70.48H96.6343Z" fill="#231F20"/>
</g>
</g>
</g>
<g id="Group_20">
<g id="Group_21">
<g id="Group_22">
<path id="Vector_11" d="M116.401 72.0222H116.249C116.249 71.8382 116.134 71.7418 115.91 71.7418H110.907V73.6518H114.163C114.273 73.6518 114.358 73.6343 114.417 73.5992C114.485 73.5554 114.519 73.4766 114.519 73.3714H114.655V75.1762H114.519C114.519 75.0142 114.405 74.9309 114.18 74.9309H110.907V77.0336H115.994C116.232 77.0336 116.351 76.946 116.351 76.7708H116.486V78.5231H116.351C116.351 78.3697 116.232 78.2953 115.994 78.2953H109.16V78.1376C109.262 78.1376 109.33 78.12 109.364 78.085C109.406 78.0412 109.431 77.958 109.431 77.8397V70.9533C109.431 70.8394 109.415 70.7562 109.381 70.708C109.347 70.651 109.27 70.6204 109.16 70.6204V70.4802H115.893C116.13 70.4802 116.249 70.4013 116.249 70.2349H116.401V72.0222Z" fill="#231F20"/>
</g>
</g>
</g>
<g id="Group_23">
<g id="Group_24">
<g id="Group_25">
<path id="Vector_12" d="M139.995 70.48V70.6202C139.948 70.6202 139.902 70.6377 139.859 70.6727C139.825 70.699 139.808 70.7384 139.808 70.7954C139.808 70.8085 139.808 70.8261 139.808 70.848C139.817 70.8611 139.834 70.9093 139.859 70.9881C139.893 71.0582 139.936 71.1546 139.995 71.2685L142.183 76.2625L144.319 71.2335C144.353 71.1634 144.387 71.0889 144.421 71.0057C144.463 70.9137 144.489 70.8436 144.489 70.7954C144.489 70.7516 144.472 70.7078 144.438 70.6727C144.404 70.6377 144.357 70.6202 144.302 70.6202V70.48H146.253V70.6202C146.151 70.6333 146.07 70.6683 146.015 70.7253C145.968 70.7866 145.905 70.8918 145.829 71.0407L143.013 77.6993C142.988 77.7694 142.967 77.8307 142.946 77.8745C142.933 77.9096 142.929 77.9446 142.929 77.9797C142.929 78.0848 143.001 78.1374 143.149 78.1374V78.2951H141.097V78.1374C141.173 78.1286 141.22 78.1155 141.233 78.1023C141.254 78.0936 141.267 78.0629 141.267 78.0147C141.267 77.9578 141.233 77.8526 141.165 77.6993L138.282 71.0407C138.248 70.9619 138.219 70.8961 138.197 70.848C138.172 70.8041 138.146 70.7691 138.113 70.7428C138.079 70.7078 138.036 70.6859 137.994 70.6727C137.947 70.664 137.892 70.6464 137.824 70.6202V70.48H139.995Z" fill="#231F20"/>
</g>
</g>
</g>
<g id="Group_26">
<g id="Group_27">
<g id="Group_28">
<path id="Vector_13" d="M157.821 70.48V70.6202C157.659 70.6202 157.553 70.6464 157.498 70.6903C157.452 70.7384 157.43 70.8261 157.43 70.9531V77.8395C157.43 77.9709 157.456 78.0498 157.515 78.0848C157.583 78.1198 157.685 78.1374 157.821 78.1374V78.2951H155.582V78.1374C155.726 78.1374 155.824 78.1198 155.87 78.0848C155.925 78.0498 155.955 77.9709 155.955 77.8395V70.9531C155.955 70.8261 155.93 70.7384 155.887 70.6903C155.841 70.6464 155.739 70.6202 155.582 70.6202V70.48H157.821Z" fill="#231F20"/>
</g>
</g>
</g>
<g id="Group_29">
<g id="Group_30">
<g id="Group_31">
<path id="Vector_14" d="M171.528 70.3748C171.99 70.3748 172.444 70.4273 172.885 70.5325C173.326 70.6288 173.733 70.7559 174.106 70.918C174.229 70.9661 174.352 71.0231 174.479 71.0932C174.602 71.1545 174.691 71.1808 174.75 71.1808C174.818 71.1808 174.869 71.1589 174.903 71.1107L175.073 71.1633L174.276 72.7754L174.106 72.6702C174.114 72.6133 174.123 72.5651 174.123 72.53C174.123 72.495 174.064 72.4337 173.953 72.3373C173.839 72.2322 173.669 72.1358 173.445 72.0394C173.216 71.9343 172.936 71.8423 172.597 71.759C172.266 71.6802 171.884 71.6364 171.443 71.6364C170.697 71.6364 170.125 71.7415 169.731 71.9518C169.332 72.1621 169.137 72.4512 169.137 72.8104C169.137 72.9988 169.192 73.139 169.307 73.2309C169.417 73.3273 169.587 73.3974 169.815 73.4412C170.04 73.4894 170.307 73.5201 170.613 73.5288C170.926 73.542 171.295 73.5464 171.715 73.5464C172.232 73.5464 172.707 73.5814 173.139 73.6515C173.58 73.7128 173.953 73.8267 174.259 74.0019C174.572 74.1772 174.818 74.4181 174.988 74.7204C175.166 75.0139 175.259 75.3994 175.259 75.8769C175.259 76.2624 175.166 76.6128 174.988 76.9282C174.805 77.2349 174.547 77.4977 174.208 77.7167C173.869 77.9402 173.449 78.111 172.953 78.2249C172.453 78.3388 171.889 78.4001 171.257 78.4001C169.921 78.4001 168.853 78.1679 168.052 77.6992C167.891 77.6072 167.802 77.559 167.78 77.559C167.734 77.559 167.7 77.5722 167.679 77.5941C167.666 77.6204 167.649 77.6379 167.628 77.6467L167.492 77.6116L168.357 75.7893L168.51 75.8769C168.51 75.9031 168.501 75.9251 168.493 75.947C168.493 75.9732 168.493 76.0083 168.493 76.0521C168.501 76.2186 168.582 76.3675 168.73 76.5077C168.887 76.6391 169.091 76.7486 169.341 76.8406C169.599 76.937 169.888 77.0115 170.206 77.0684C170.519 77.1166 170.841 77.1385 171.172 77.1385C171.995 77.1385 172.622 77.0421 173.055 76.8406C173.483 76.6303 173.699 76.3456 173.699 75.982C173.699 75.7498 173.623 75.5702 173.478 75.4388C173.343 75.3118 173.148 75.2198 172.902 75.1584C172.652 75.0883 172.351 75.0489 172.003 75.0358C171.651 75.027 171.265 75.0139 170.85 75.0007C170.35 75.0007 169.905 74.9657 169.51 74.8956C169.112 74.8255 168.781 74.716 168.51 74.5627C168.238 74.4006 168.026 74.1903 167.882 73.9319C167.734 73.6646 167.662 73.3273 167.662 72.9155C167.662 72.495 167.755 72.127 167.95 71.8116C168.141 71.4962 168.408 71.2334 168.747 71.0231C169.095 70.8041 169.51 70.6376 169.985 70.5325C170.46 70.4273 170.973 70.3748 171.528 70.3748Z" fill="#231F20"/>
</g>
</g>
</g>
<g id="Group_32">
<g id="Group_33">
<g id="Group_34">
<path id="Vector_15" d="M184.336 70.2168H184.472C184.472 70.392 184.59 70.4796 184.828 70.4796H191.323C191.56 70.4796 191.679 70.392 191.679 70.2168H191.815V72.0041H191.679C191.679 71.8289 191.56 71.7413 191.323 71.7413H188.813V77.8391C188.813 77.9443 188.83 78.0231 188.864 78.0669C188.906 78.1151 188.999 78.137 189.135 78.137V78.2947H187.032V78.137C187.155 78.137 187.236 78.1151 187.27 78.0669C187.312 78.0231 187.338 77.9443 187.338 77.8391V71.7413H184.828C184.59 71.7413 184.472 71.8289 184.472 72.0041H184.336V70.2168Z" fill="#231F20"/>
</g>
</g>
</g>
<g id="Group_35">
<g id="Group_36">
<g id="Group_37">
<path id="Vector_16" d="M203.641 75.0008H206.117L204.879 72.1972L203.641 75.0008ZM206.1 70.48V70.6202C205.951 70.6464 205.879 70.7034 205.879 70.7954C205.879 70.8436 205.896 70.9005 205.93 70.9706C205.964 71.0407 205.998 71.1196 206.032 71.1984L209 77.7344C209.068 77.8877 209.118 77.9928 209.152 78.0498C209.195 78.1111 209.275 78.1374 209.39 78.1374V78.2951H207.321V78.1374C207.444 78.1374 207.507 78.1023 207.507 78.0322C207.507 77.9972 207.495 77.9446 207.473 77.8745C207.448 77.8044 207.41 77.7168 207.355 77.6117L206.727 76.2274H203.166C203.005 76.5779 202.878 76.867 202.776 77.086C202.683 77.2963 202.611 77.4627 202.555 77.5766C202.509 77.6818 202.471 77.7694 202.437 77.8395C202.411 77.9008 202.403 77.9446 202.403 77.9797C202.403 78.076 202.454 78.1286 202.555 78.1374V78.2951H200.707V78.1374C200.817 78.1374 200.898 78.1111 200.944 78.0498C200.987 77.9797 201.038 77.8745 201.097 77.7344L203.946 71.1458C203.967 71.0889 203.988 71.0319 204.014 70.9706C204.035 70.9137 204.048 70.8611 204.048 70.8129C204.048 70.7078 203.972 70.6464 203.827 70.6202V70.48H206.1Z" fill="#231F20"/>
</g>
</g>
</g>
</g>
</svg>
