<svg width="136" height="79" viewBox="0 0 136 79" fill="none" xmlns="http://www.w3.org/2000/svg">
<g id="Group 61">
<g id="Clip path group">
<mask id="mask0_1_2667" style="mask-type:luminance" maskUnits="userSpaceOnUse" x="15" y="0" width="102" height="79">
<g id="84a3898914">
<path id="Vector" d="M15.8438 0H116.878V78.297H15.8438V0Z" fill="white"/>
</g>
</mask>
<g mask="url(#mask0_1_2667)">
<g id="Group">
<path id="Vector_2" d="M18.1143 18.1796C18.1143 21.6377 19.1852 25.6504 22.5214 25.6504C25.9629 25.6504 27.9046 23.1955 31.3461 23.1955C36.0768 23.1955 39.5209 26.9853 39.5209 31.7782C39.5209 36.5712 35.5401 40.0293 30.9094 40.0293C22.6293 40.0375 15.8516 29.4429 15.8516 22.3038C15.8516 9.37117 26.2865 0 38.1159 0H75.9854V0.777532C72.1124 0.777532 66.6239 2.90079 66.6239 6.80477C66.6239 7.35937 67.0528 8.7051 67.0528 8.7051L85.4442 53.2012L97.3999 22.5267C97.3999 22.5267 99.2338 17.5108 99.2338 14.9444C99.2338 7.80523 94.9319 0.888997 89.6566 0.888997V0H116.875V0.888997C108.703 0.888997 103.212 10.4858 99.8784 19.18L77.6114 78.297L47.6931 8.36255C45.4383 2.90079 42.9624 1.11193 38.1159 1.11193C28.5493 1.11193 18.1143 8.36255 18.1143 18.1796Z" fill="#231F20"/>
</g>
</g>
</g>
<g id="Clip path group_2">
<mask id="mask1_1_2667" style="mask-type:luminance" maskUnits="userSpaceOnUse" x="0" y="41" width="136" height="13">
<g id="43650ea3e6">
<path id="Vector_3" d="M0 41.6279H135.291V53.9869H0V41.6279Z" fill="white"/>
</g>
</mask>
<g mask="url(#mask1_1_2667)">
<g id="Group_2">
<path id="Vector_4" d="M0 41.6279H135.291V53.9869H0V41.6279Z" fill="white"/>
</g>
</g>
</g>
<g id="Group_3">
<g id="Group_4">
<path id="Vector_5" d="M4.01119 43.7402V43.8272C3.98224 43.8272 3.9533 43.8381 3.92699 43.8599C3.90594 43.8762 3.89542 43.9006 3.89542 43.936C3.89542 43.9441 3.89542 43.955 3.89542 43.9686C3.90068 43.9768 3.9112 44.0067 3.92699 44.0556C3.94804 44.0991 3.97435 44.1589 4.01119 44.2296L5.36883 47.3288L6.69491 44.2078C6.71596 44.1643 6.73701 44.1181 6.75806 44.0665C6.78437 44.0094 6.80015 43.9659 6.80015 43.936C6.80015 43.9088 6.78963 43.8816 6.76858 43.8599C6.74753 43.8381 6.71859 43.8272 6.68438 43.8272V43.7402H7.89469V43.8272C7.83154 43.8354 7.78155 43.8571 7.74735 43.8925C7.71841 43.9305 7.67894 43.9958 7.63158 44.0882L5.88453 48.2206C5.86874 48.2641 5.85559 48.3021 5.84243 48.3293C5.83454 48.3511 5.83191 48.3728 5.83191 48.3946C5.83191 48.4598 5.87664 48.4924 5.96873 48.4924V48.5903H4.69527V48.4924C4.74263 48.487 4.77157 48.4788 4.77947 48.4707C4.79262 48.4652 4.80052 48.4462 4.80052 48.4163C4.80052 48.381 4.77947 48.3157 4.73737 48.2206L2.94822 44.0882C2.92717 44.0393 2.90875 43.9985 2.8956 43.9686C2.87981 43.9414 2.86403 43.9197 2.84298 43.9034C2.82193 43.8816 2.79562 43.868 2.76931 43.8599C2.74036 43.8544 2.70616 43.8435 2.66406 43.8272V43.7402H4.01119Z" fill="#231F20"/>
</g>
</g>
<g id="Group_5">
<g id="Group_6">
<g id="Group_7">
<path id="Vector_6" d="M18.115 44.6971H18.0203C18.0203 44.5829 17.9493 44.5231 17.8098 44.5231H14.7051V45.7084H16.7258C16.7942 45.7084 16.8468 45.6976 16.8837 45.6758C16.9258 45.6486 16.9468 45.5997 16.9468 45.5344H17.031V46.6545H16.9468C16.9468 46.5539 16.8758 46.5023 16.7363 46.5023H14.7051V47.8072H17.8624C18.0098 47.8072 18.0834 47.7529 18.0834 47.6441H18.1676V48.7316H18.0834C18.0834 48.6364 18.0098 48.5902 17.8624 48.5902H13.6211V48.4923C13.6842 48.4923 13.7263 48.4815 13.7474 48.4597C13.7737 48.4325 13.7895 48.3809 13.7895 48.3075V44.0337C13.7895 43.9631 13.779 43.9114 13.7579 43.8815C13.7369 43.8462 13.6895 43.8271 13.6211 43.8271V43.7401H17.7993C17.9466 43.7401 18.0203 43.6912 18.0203 43.5879H18.115V44.6971Z" fill="#231F20"/>
</g>
</g>
</g>
<g id="Group_8">
<g id="Group_9">
<g id="Group_10">
<path id="Vector_7" d="M25.5584 43.7397V43.8267C25.4795 43.8267 25.4321 43.8376 25.411 43.8594C25.39 43.8757 25.3795 43.892 25.3795 43.9137C25.3795 43.9355 25.4031 43.9681 25.4531 44.0116L28.2526 47.0891V44.0116C28.2526 43.9464 28.2421 43.9001 28.2211 43.8702C28.2 43.8431 28.1526 43.8267 28.0842 43.8267V43.7397H29.2419V43.8267C29.1709 43.8267 29.1209 43.8431 29.0946 43.8702C29.0735 43.9001 29.063 43.9545 29.063 44.0334V48.2853C29.063 48.3669 29.0735 48.4213 29.0946 48.4484C29.1209 48.4783 29.1709 48.4919 29.2419 48.4919V48.5898H28.0421V48.4919C28.0763 48.4919 28.1053 48.4919 28.1263 48.4919C28.1526 48.4865 28.1684 48.4702 28.1684 48.4484C28.1684 48.4213 28.1579 48.3941 28.1369 48.3723C28.1158 48.3451 28.0869 48.3125 28.0527 48.2744L25.1479 45.0447V48.3071C25.1479 48.3723 25.1585 48.4213 25.1795 48.4484C25.2006 48.4783 25.2479 48.4919 25.3268 48.4919V48.5898H24.1797V48.4919C24.2481 48.4919 24.2902 48.4783 24.306 48.4484C24.327 48.4213 24.3376 48.3778 24.3376 48.3179V44.0116C24.3376 43.9464 24.327 43.9001 24.306 43.8702C24.2902 43.8431 24.2481 43.8267 24.1797 43.8267V43.7397H25.5584Z" fill="#231F20"/>
</g>
</g>
</g>
<g id="Group_11">
<g id="Group_12">
<g id="Group_13">
<path id="Vector_8" d="M35.1055 43.5767H35.1897C35.1897 43.6854 35.2633 43.7398 35.4107 43.7398H39.4415C39.5889 43.7398 39.6625 43.6854 39.6625 43.5767H39.7467V44.6859H39.6625C39.6625 44.5771 39.5889 44.5227 39.4415 44.5227H37.8839V48.3071C37.8839 48.3724 37.8944 48.4213 37.9155 48.4485C37.9418 48.4784 37.9997 48.492 38.0839 48.492V48.5898H36.7788V48.492C36.8552 48.492 36.9051 48.4784 36.9262 48.4485C36.9525 48.4213 36.9683 48.3724 36.9683 48.3071V44.5227H35.4107C35.2633 44.5227 35.1897 44.5771 35.1897 44.6859H35.1055V43.5767Z" fill="#231F20"/>
</g>
</g>
</g>
<g id="Group_14">
<g id="Group_15">
<g id="Group_16">
<path id="Vector_9" d="M46.8777 43.7397V43.8267C46.7988 43.8267 46.7462 43.8431 46.7199 43.8702C46.6988 43.9001 46.6883 43.9518 46.6883 44.0225V46.7955C46.6883 46.9994 46.7093 47.1707 46.7514 47.3066C46.7988 47.4453 46.8804 47.554 46.9935 47.6328C47.104 47.7144 47.2513 47.7742 47.4355 47.8177C47.625 47.8558 47.8591 47.8721 48.1407 47.8721C48.4406 47.8721 48.6879 47.8503 48.8774 47.8068C49.0668 47.7633 49.2141 47.6981 49.3194 47.6111C49.4246 47.5241 49.4983 47.4154 49.5404 47.2849C49.5825 47.1489 49.6035 46.9858 49.6035 46.7955V44.0225C49.6035 43.9518 49.5878 43.9001 49.5615 43.8702C49.5404 43.8431 49.4904 43.8267 49.4141 43.8267V43.7397H50.6981V43.8267C50.627 43.8267 50.5771 43.8431 50.5507 43.8702C50.5297 43.9001 50.5192 43.9518 50.5192 44.0225V46.9586C50.5192 47.2359 50.4718 47.4806 50.3824 47.6981C50.2903 47.9101 50.1508 48.0869 49.9614 48.2309C49.7719 48.3778 49.5246 48.4865 49.2247 48.5572C48.9221 48.6224 48.5616 48.6551 48.1407 48.6551C47.7197 48.6551 47.3566 48.6224 47.0566 48.5572C46.762 48.4865 46.5146 48.3778 46.3199 48.2309C46.1305 48.0869 45.9884 47.9101 45.899 47.6981C45.8148 47.4806 45.7727 47.2359 45.7727 46.9586V44.0225C45.7727 43.9518 45.7621 43.9001 45.7411 43.8702C45.72 43.8431 45.6701 43.8267 45.5938 43.8267V43.7397H46.8777Z" fill="#231F20"/>
</g>
</g>
</g>
<g id="Group_17">
<g id="Group_18">
<g id="Group_19">
<path id="Vector_10" d="M59.9274 45.7412C60.0379 45.7412 60.1432 45.7303 60.2431 45.7085C60.3405 45.6868 60.4247 45.6514 60.4957 45.5998C60.572 45.5427 60.6325 45.4774 60.6746 45.404C60.722 45.3334 60.7483 45.2409 60.7483 45.1322C60.7483 45.0234 60.722 44.931 60.6746 44.8494C60.6246 44.7706 60.5615 44.7081 60.4852 44.6646C60.4063 44.6156 60.3194 44.5776 60.2221 44.5558C60.1221 44.5341 60.0248 44.5232 59.9274 44.5232H57.9593V45.7412H59.9274ZM59.9695 43.7402C60.2142 43.7402 60.4378 43.7729 60.6431 43.8381C60.8535 43.8979 61.0325 43.9876 61.1798 44.11C61.3324 44.2269 61.4534 44.371 61.5376 44.545C61.6218 44.7189 61.6639 44.9147 61.6639 45.1322C61.6639 45.5182 61.5534 45.8336 61.3377 46.0783C61.1272 46.3257 60.8141 46.4806 60.401 46.5459L61.5166 48.1879C61.5929 48.3048 61.6481 48.3837 61.685 48.4272C61.7271 48.4707 61.7902 48.4924 61.8744 48.4924V48.5903H60.4431V48.4924C60.4773 48.4924 60.4983 48.4897 60.5062 48.4816C60.5194 48.468 60.5273 48.4571 60.5273 48.4489C60.5273 48.4136 60.5194 48.3837 60.5062 48.3619C60.4905 48.3347 60.4563 48.2804 60.401 48.1988L59.2644 46.5241H57.9383V48.2967C57.9383 48.3701 57.9488 48.4217 57.9699 48.4489C57.9909 48.4788 58.0383 48.4924 58.1172 48.4924V48.5903H56.8438V48.4924C56.9122 48.4924 56.9595 48.4788 56.9806 48.4489C57.0069 48.4217 57.0227 48.3701 57.0227 48.2967V44.023C57.0227 43.9523 57.0121 43.9006 56.9911 43.8707C56.97 43.8435 56.9201 43.8272 56.8438 43.8272V43.7402H59.9695Z" fill="#231F20"/>
</g>
</g>
</g>
<g id="Group_20">
<g id="Group_21">
<g id="Group_22">
<path id="Vector_11" d="M72.24 44.6971H72.1453C72.1453 44.5829 72.0743 44.5231 71.9348 44.5231H68.8301V45.7084H70.8508C70.9192 45.7084 70.9718 45.6976 71.0087 45.6758C71.0508 45.6486 71.0718 45.5997 71.0718 45.5344H71.156V46.6545H71.0718C71.0718 46.5539 71.0008 46.5023 70.8613 46.5023H68.8301V47.8072H71.9874C72.1348 47.8072 72.2084 47.7529 72.2084 47.6441H72.2926V48.7316H72.2084C72.2084 48.6364 72.1348 48.5902 71.9874 48.5902H67.7461V48.4923C67.8092 48.4923 67.8513 48.4815 67.8724 48.4597C67.8987 48.4325 67.9145 48.3809 67.9145 48.3075V44.0337C67.9145 43.9631 67.904 43.9114 67.8829 43.8815C67.8619 43.8462 67.8145 43.8271 67.7461 43.8271V43.7401H71.9243C72.0716 43.7401 72.1453 43.6912 72.1453 43.5879H72.24V44.6971Z" fill="#231F20"/>
</g>
</g>
</g>
<g id="Group_23">
<g id="Group_24">
<g id="Group_25">
<path id="Vector_12" d="M86.8823 43.7397V43.8267C86.8533 43.8267 86.8244 43.8376 86.7981 43.8594C86.777 43.8757 86.7665 43.9001 86.7665 43.9355C86.7665 43.9436 86.7665 43.9545 86.7665 43.9681C86.7718 43.9763 86.7823 44.0062 86.7981 44.0551C86.8191 44.0986 86.8454 44.1584 86.8823 44.2291L88.2399 47.3284L89.566 44.2074C89.5871 44.1639 89.6081 44.1176 89.6291 44.066C89.6555 44.0089 89.6712 43.9654 89.6712 43.9355C89.6712 43.9083 89.6607 43.8811 89.6397 43.8594C89.6186 43.8376 89.5897 43.8267 89.5555 43.8267V43.7397H90.7658V43.8267C90.7026 43.8349 90.6526 43.8566 90.6184 43.892C90.5895 43.9301 90.55 43.9953 90.5027 44.0877L88.7556 48.2201C88.7398 48.2636 88.7267 48.3016 88.7135 48.3288C88.7056 48.3506 88.703 48.3723 88.703 48.3941C88.703 48.4593 88.7477 48.4919 88.8398 48.4919V48.5898H87.5664V48.4919C87.6137 48.4865 87.6427 48.4783 87.6506 48.4702C87.6637 48.4648 87.6716 48.4457 87.6716 48.4158C87.6716 48.3805 87.6506 48.3152 87.6085 48.2201L85.8193 44.0877C85.7983 44.0388 85.7798 43.998 85.7667 43.9681C85.7509 43.9409 85.7351 43.9192 85.7141 43.9029C85.693 43.8811 85.6667 43.8675 85.6404 43.8594C85.6115 43.8539 85.5773 43.8431 85.5352 43.8267V43.7397H86.8823Z" fill="#231F20"/>
</g>
</g>
</g>
<g id="Group_26">
<g id="Group_27">
<g id="Group_28">
<path id="Vector_13" d="M97.9439 43.7402V43.8272C97.8439 43.8272 97.7781 43.8435 97.7439 43.8707C97.715 43.9006 97.7018 43.955 97.7018 44.0338V48.3076C97.7018 48.3891 97.7176 48.4381 97.7545 48.4598C97.7966 48.4816 97.8597 48.4924 97.9439 48.4924V48.5903H96.5547V48.4924C96.6441 48.4924 96.7047 48.4816 96.7336 48.4598C96.7678 48.4381 96.7862 48.3891 96.7862 48.3076V44.0338C96.7862 43.955 96.7704 43.9006 96.7441 43.8707C96.7152 43.8435 96.652 43.8272 96.5547 43.8272V43.7402H97.9439Z" fill="#231F20"/>
</g>
</g>
</g>
<g id="Group_29">
<g id="Group_30">
<g id="Group_31">
<path id="Vector_14" d="M106.45 43.6748C106.737 43.6748 107.018 43.7074 107.292 43.7727C107.566 43.8325 107.818 43.9113 108.05 44.0119C108.126 44.0418 108.202 44.0772 108.281 44.1207C108.358 44.1587 108.413 44.175 108.45 44.175C108.492 44.175 108.523 44.1614 108.544 44.1315L108.65 44.1642L108.155 45.1646L108.05 45.0994C108.055 45.064 108.06 45.0341 108.06 45.0124C108.06 44.9906 108.024 44.9526 107.955 44.8928C107.884 44.8275 107.779 44.7677 107.639 44.7079C107.497 44.6426 107.324 44.5856 107.113 44.5339C106.908 44.485 106.671 44.4578 106.397 44.4578C105.934 44.4578 105.579 44.523 105.335 44.6535C105.087 44.784 104.966 44.9634 104.966 45.1864C104.966 45.3033 105 45.3903 105.071 45.4474C105.14 45.5072 105.245 45.5507 105.387 45.5779C105.527 45.6078 105.692 45.6268 105.882 45.6322C106.077 45.6404 106.305 45.6431 106.566 45.6431C106.887 45.6431 107.182 45.6649 107.45 45.7084C107.724 45.7464 107.955 45.8171 108.145 45.9258C108.339 46.0346 108.492 46.1841 108.597 46.3717C108.708 46.5539 108.765 46.7931 108.765 47.0894C108.765 47.3287 108.708 47.5462 108.597 47.7419C108.484 47.9322 108.323 48.0953 108.113 48.2313C107.902 48.3699 107.642 48.4759 107.334 48.5466C107.024 48.6173 106.674 48.6554 106.282 48.6554C105.453 48.6554 104.79 48.5113 104.293 48.2204C104.193 48.1633 104.137 48.1334 104.124 48.1334C104.095 48.1334 104.074 48.1415 104.061 48.1551C104.053 48.1714 104.043 48.1823 104.03 48.1878L103.945 48.166L104.482 47.0351L104.577 47.0894C104.577 47.1057 104.572 47.1193 104.566 47.1329C104.566 47.1492 104.566 47.171 104.566 47.1982C104.572 47.3015 104.622 47.3939 104.714 47.4809C104.811 47.5625 104.937 47.6304 105.092 47.6875C105.253 47.7473 105.432 47.7936 105.629 47.8289C105.824 47.8588 106.024 47.8724 106.229 47.8724C106.74 47.8724 107.129 47.8126 107.397 47.6875C107.663 47.557 107.797 47.3803 107.797 47.1547C107.797 47.0106 107.75 46.8991 107.66 46.8176C107.576 46.7387 107.455 46.6816 107.303 46.6436C107.147 46.6001 106.961 46.5756 106.745 46.5674C106.526 46.562 106.287 46.5539 106.029 46.5457C105.719 46.5457 105.442 46.5239 105.198 46.4804C104.95 46.4369 104.745 46.369 104.577 46.2738C104.408 46.1732 104.277 46.0427 104.187 45.8823C104.095 45.7165 104.051 45.5072 104.051 45.2516C104.051 44.9906 104.108 44.7623 104.229 44.5665C104.348 44.3708 104.514 44.2077 104.724 44.0772C104.94 43.9412 105.198 43.8379 105.492 43.7727C105.787 43.7074 106.105 43.6748 106.45 43.6748Z" fill="#231F20"/>
</g>
</g>
</g>
<g id="Group_32">
<g id="Group_33">
<g id="Group_34">
<path id="Vector_15" d="M114.398 43.5767H114.483C114.483 43.6854 114.556 43.7398 114.704 43.7398H118.734C118.882 43.7398 118.956 43.6854 118.956 43.5767H119.04V44.6859H118.956C118.956 44.5771 118.882 44.5227 118.734 44.5227H117.177V48.3071C117.177 48.3724 117.187 48.4213 117.208 48.4485C117.235 48.4784 117.293 48.492 117.377 48.492V48.5898H116.072V48.492C116.148 48.492 116.198 48.4784 116.219 48.4485C116.245 48.4213 116.261 48.3724 116.261 48.3071V44.5227H114.704C114.556 44.5227 114.483 44.5771 114.483 44.6859H114.398V43.5767Z" fill="#231F20"/>
</g>
</g>
</g>
<g id="Group_35">
<g id="Group_36">
<g id="Group_37">
<path id="Vector_16" d="M126.383 46.5454H127.92L127.152 44.8055L126.383 46.5454ZM127.909 43.7397V43.8267C127.817 43.8431 127.772 43.8784 127.772 43.9355C127.772 43.9654 127.783 44.0007 127.804 44.0442C127.825 44.0877 127.846 44.1367 127.867 44.1856L129.709 48.2418C129.751 48.337 129.783 48.4022 129.804 48.4376C129.83 48.4756 129.88 48.4919 129.951 48.4919V48.5898H128.667V48.4919C128.743 48.4919 128.783 48.4702 128.783 48.4267C128.783 48.4049 128.775 48.3723 128.762 48.3288C128.746 48.2853 128.722 48.2309 128.688 48.1657L128.299 47.3066H126.089C125.989 47.5241 125.91 47.7035 125.846 47.8395C125.789 47.97 125.744 48.0733 125.71 48.144C125.681 48.2092 125.657 48.2636 125.636 48.3071C125.62 48.3451 125.615 48.3723 125.615 48.3941C125.615 48.4539 125.647 48.4865 125.71 48.4919V48.5898H124.562V48.4919C124.631 48.4919 124.681 48.4756 124.71 48.4376C124.736 48.3941 124.768 48.3288 124.805 48.2418L126.573 44.153C126.586 44.1176 126.599 44.0823 126.615 44.0442C126.628 44.0089 126.636 43.9763 126.636 43.9464C126.636 43.8811 126.588 43.8431 126.499 43.8267V43.7397H127.909Z" fill="#231F20"/>
</g>
</g>
</g>
</g>
</svg>
